<?xml version="1.0" encoding="UTF-8" standalone="no"?>
<svg
   version="1.1"
   id="Laag_1"
   x="0px"
   y="0px"
   width="1920px"
   height="144px"
   viewBox="0 0 1920 144"
   style="enable-background:new 0 0 1920 144;"
   xml:space="preserve"
   sodipodi:docname="cringe.svg"
   inkscape:version="1.2.2 (732a01da63, 2022-12-09)"
   xmlns:inkscape="http://www.inkscape.org/namespaces/inkscape"
   xmlns:sodipodi="http://sodipodi.sourceforge.net/DTD/sodipodi-0.dtd"
   xmlns="http://www.w3.org/2000/svg"
   xmlns:svg="http://www.w3.org/2000/svg"><defs
   id="defs427" /><sodipodi:namedview
   id="namedview425"
   pagecolor="#ffffff"
   bordercolor="#000000"
   borderopacity="0.25"
   inkscape:showpageshadow="2"
   inkscape:pageopacity="0.0"
   inkscape:pagecheckerboard="0"
   inkscape:deskcolor="#d1d1d1"
   showgrid="false"
   inkscape:zoom="1.2833333"
   inkscape:cx="960"
   inkscape:cy="71.688312"
   inkscape:window-width="2560"
   inkscape:window-height="1494"
   inkscape:window-x="-11"
   inkscape:window-y="-11"
   inkscape:window-maximized="1"
   inkscape:current-layer="Laag_1" />
<style
   type="text/css"
   id="style340">
	.st0{opacity:3.000000e-02;}
</style>
<g
   class="st0"
   id="g422">
	<path
   d="M119.7,73.9c0,0.2-0.2,0.3-0.4,0.3l-29,0c-0.1,0-0.2,0-0.3-0.1L64.7,45.3c-0.3-0.3-0.8-0.3-1.1,0L38.5,74.1   c-0.1,0.1-0.2,0.1-0.3,0.1H9.1c-0.2,0-0.4-0.2-0.4-0.3L5.2,8.3c0-0.2,0.2-0.4,0.4-0.4h30.6c0.2,0,0.4,0.1,0.4,0.3l1.7,20.3   c0,0.6,0.8,0.9,1.2,0.5L63.9,8c0.1-0.1,0.3-0.1,0.5,0c2.5,2.2,24.5,21,24.6,21.1c0.5,0.4,1.2,0.1,1.2-0.5l1.7-20.3   c0-0.2,0.2-0.3,0.4-0.3h30.6c0.2,0,0.4,0.2,0.4,0.4L119.7,73.9z"
   id="path342" />
	<path
   d="M239.5,145.1c0,0.2-0.2,0.3-0.4,0.3l-29,0c-0.1,0-0.2,0-0.3-0.1l-25.3-28.8c-0.3-0.3-0.8-0.3-1.1,0l-25.1,28.8   c-0.1,0.1-0.2,0.1-0.3,0.1H129c-0.2,0-0.4-0.2-0.4-0.3l-3.6-65.6c0-0.2,0.2-0.4,0.4-0.4H156c0.2,0,0.4,0.1,0.4,0.3l1.7,20.3   c0,0.6,0.8,0.9,1.2,0.5l24.5-21c0.1-0.1,0.3-0.1,0.5,0c2.5,2.2,24.5,21,24.6,21.1c0.5,0.4,1.2,0.1,1.2-0.5l1.7-20.3   c0-0.2,0.2-0.3,0.4-0.3h30.6c0.2,0,0.4,0.2,0.4,0.4L239.5,145.1z"
   id="path344" />
	<path
   d="M242.7,73.9h-30.6c-0.2,0-0.4-0.1-0.4-0.3l-1.7-20.3c0-0.6-0.8-0.9-1.2-0.5l-24.5,21c-0.1,0.1-0.3,0.1-0.5,0   c-2.5-2.2-24.5-21-24.6-21.1c-0.5-0.4-1.2-0.1-1.2,0.5l-1.7,20.3c0,0.2-0.2,0.3-0.4,0.3h-30.6c-0.2,0-0.4-0.2-0.4-0.4l3.6-65.6   c0-0.2,0.2-0.3,0.4-0.3l29,0c0.1,0,0.2,0,0.3,0.1l25.3,28.8c0.3,0.3,0.8,0.3,1.1,0l25.1-28.8c0.1-0.1,0.2-0.1,0.3-0.1h29.1   c0.2,0,0.4,0.2,0.4,0.3l3.6,65.6C243.1,73.7,242.9,73.9,242.7,73.9z"
   id="path346" />
	<path
   d="M122.5,145.4H92c-0.2,0-0.4-0.1-0.4-0.3l-1.7-20.3c0-0.6-0.8-0.9-1.2-0.5l-24.5,21c-0.1,0.1-0.3,0.1-0.5,0   c-2.5-2.2-24.5-21-24.6-21.1c-0.5-0.4-1.2-0.1-1.2,0.5l-1.7,20.3c0,0.2-0.2,0.3-0.4,0.3H5.2c-0.2,0-0.4-0.2-0.4-0.4l3.6-65.6   c0-0.2,0.2-0.3,0.4-0.3l29,0c0.1,0,0.2,0,0.3,0.1L63.4,108c0.3,0.3,0.8,0.3,1.1,0l25.1-28.8c0.1-0.1,0.2-0.1,0.3-0.1H119   c0.2,0,0.4,0.2,0.4,0.3l3.6,65.6C122.9,145.2,122.7,145.4,122.5,145.4z"
   id="path348" />
	<path
   d="M359.2,73.8c0,0.2-0.2,0.3-0.4,0.3l-29,0c-0.1,0-0.2,0-0.3-0.1l-25.3-28.8c-0.3-0.3-0.8-0.3-1.1,0L278,74   c-0.1,0.1-0.2,0.1-0.3,0.1h-29.1c-0.2,0-0.4-0.2-0.4-0.3l-3.6-65.6c0-0.2,0.2-0.4,0.4-0.4h30.6c0.2,0,0.4,0.1,0.4,0.3l1.7,20.3   c0,0.6,0.8,0.9,1.2,0.5l24.5-21c0.1-0.1,0.3-0.1,0.5,0c2.5,2.2,24.5,21,24.6,21.1c0.5,0.4,1.2,0.1,1.2-0.5l1.7-20.3   c0-0.2,0.2-0.3,0.4-0.3h30.6c0.2,0,0.4,0.2,0.4,0.4L359.2,73.8z"
   id="path350" />
	<path
   d="M479,144.9c0,0.2-0.2,0.3-0.4,0.3l-29,0c-0.1,0-0.2,0-0.3-0.1l-25.3-28.8c-0.3-0.3-0.8-0.3-1.1,0l-25.1,28.8   c-0.1,0.1-0.2,0.1-0.3,0.1h-29.1c-0.2,0-0.4-0.2-0.4-0.3l-3.6-65.6c0-0.2,0.2-0.4,0.4-0.4h30.6c0.2,0,0.4,0.1,0.4,0.3l1.7,20.3   c0,0.6,0.8,0.9,1.2,0.5l24.5-21c0.1-0.1,0.3-0.1,0.5,0c2.5,2.2,24.5,21,24.6,21.1c0.5,0.4,1.2,0.1,1.2-0.5l1.7-20.3   c0-0.2,0.2-0.3,0.4-0.3h30.6c0.2,0,0.4,0.2,0.4,0.4L479,144.9z"
   id="path352" />
	<path
   d="M482.2,73.8h-30.6c-0.2,0-0.4-0.1-0.4-0.3l-1.7-20.3c0-0.6-0.8-0.9-1.2-0.5l-24.5,21c-0.1,0.1-0.3,0.1-0.5,0   c-2.5-2.2-24.5-21-24.6-21.1c-0.5-0.4-1.2-0.1-1.2,0.5L396,73.4c0,0.2-0.2,0.3-0.4,0.3H365c-0.2,0-0.4-0.2-0.4-0.4l3.6-65.6   c0-0.2,0.2-0.3,0.4-0.3l29,0c0.1,0,0.2,0,0.3,0.1l25.3,28.8c0.3,0.3,0.8,0.3,1.1,0l25.1-28.8c0.1-0.1,0.2-0.1,0.3-0.1h29.1   c0.2,0,0.4,0.2,0.4,0.3l3.6,65.6C482.6,73.6,482.4,73.8,482.2,73.8z"
   id="path354" />
	<path
   d="M362,145.3h-30.6c-0.2,0-0.4-0.1-0.4-0.3l-1.7-20.3c0-0.6-0.8-0.9-1.2-0.5l-24.5,21c-0.1,0.1-0.3,0.1-0.5,0   c-2.5-2.2-24.5-21-24.6-21.1c-0.5-0.4-1.2-0.1-1.2,0.5l-1.7,20.3c0,0.2-0.2,0.3-0.4,0.3h-30.6c-0.2,0-0.4-0.2-0.4-0.4l3.6-65.6   c0-0.2,0.2-0.3,0.4-0.3l29,0c0.1,0,0.2,0,0.3,0.1l25.3,28.8c0.3,0.3,0.8,0.3,1.1,0l25.1-28.8c0.1-0.1,0.2-0.1,0.3-0.1h29.1   c0.2,0,0.4,0.2,0.4,0.3l3.6,65.6C362.4,145.1,362.2,145.3,362,145.3z"
   id="path356" />
	<g
   id="g360">
		<path
   d="M598.9,73.4c0,0.2-0.2,0.3-0.4,0.3l-29,0c-0.1,0-0.2,0-0.3-0.1l-25.3-28.8c-0.3-0.3-0.8-0.3-1.1,0l-25.1,28.8    c-0.1,0.1-0.2,0.1-0.3,0.1h-29.1c-0.2,0-0.4-0.2-0.4-0.3l-3.6-65.6c0-0.2,0.2-0.4,0.4-0.4h30.6c0.2,0,0.4,0.1,0.4,0.3l1.7,20.3    c0,0.6,0.8,0.9,1.2,0.5l24.5-21c0.1-0.1,0.3-0.1,0.5,0c2.5,2.2,24.5,21,24.6,21.1c0.5,0.4,1.2,0.1,1.2-0.5l1.7-20.3    c0-0.2,0.2-0.3,0.4-0.3h30.6c0.2,0,0.4,0.2,0.4,0.4L598.9,73.4z"
   id="path358" />
	</g>
	<g
   id="g366">
		<path
   d="M718.8,144.5c0,0.2-0.2,0.3-0.4,0.3l-29,0c-0.1,0-0.2,0-0.3-0.1l-25.3-28.8c-0.3-0.3-0.8-0.3-1.1,0l-25.1,28.8    c-0.1,0.1-0.2,0.1-0.3,0.1h-29.1c-0.2,0-0.4-0.2-0.4-0.3l-3.6-65.6c0-0.2,0.2-0.4,0.4-0.4h30.6c0.2,0,0.4,0.1,0.4,0.3l1.7,20.3    c0,0.6,0.8,0.9,1.2,0.5l24.5-21c0.1-0.1,0.3-0.1,0.5,0c2.5,2.2,24.5,21,24.6,21.1c0.5,0.4,1.2,0.1,1.2-0.5l1.7-20.3    c0-0.2,0.2-0.3,0.4-0.3H722c0.2,0,0.4,0.2,0.4,0.4L718.8,144.5z"
   id="path362" />
		<path
   d="M722,73.3h-30.6c-0.2,0-0.4-0.1-0.4-0.3l-1.7-20.3c0-0.6-0.8-0.9-1.2-0.5l-24.5,21c-0.1,0.1-0.3,0.1-0.5,0    c-2.5-2.2-24.5-21-24.6-21.1c-0.5-0.4-1.2-0.1-1.2,0.5L635.7,73c0,0.2-0.2,0.3-0.4,0.3h-30.6c-0.2,0-0.4-0.2-0.4-0.4l3.6-65.6    c0-0.2,0.2-0.3,0.4-0.3l29,0c0.1,0,0.2,0,0.3,0.1L662.9,36c0.3,0.3,0.8,0.3,1.1,0L689,7.1c0.1-0.1,0.2-0.1,0.3-0.1h29.1    c0.2,0,0.4,0.2,0.4,0.3l3.6,65.6C722.3,73.2,722.2,73.3,722,73.3z"
   id="path364" />
	</g>
	<path
   d="M601.8,144.9h-30.6c-0.2,0-0.4-0.1-0.4-0.3l-1.7-20.3c0-0.6-0.8-0.9-1.2-0.5l-24.5,21c-0.1,0.1-0.3,0.1-0.5,0   c-2.5-2.2-24.5-21-24.6-21.1c-0.5-0.4-1.2-0.1-1.2,0.5l-1.7,20.3c0,0.2-0.2,0.3-0.4,0.3h-30.6c-0.2,0-0.4-0.2-0.4-0.4l3.6-65.6   c0-0.2,0.2-0.3,0.4-0.3l29,0c0.1,0,0.2,0,0.3,0.1l25.3,28.8c0.3,0.3,0.8,0.3,1.1,0l25.1-28.8c0.1-0.1,0.2-0.1,0.3-0.1h29.1   c0.2,0,0.4,0.2,0.4,0.3l3.6,65.6C602.1,144.7,602,144.9,601.8,144.9z"
   id="path368" />
	<g
   id="g372">
		<path
   d="M838.4,73.2c0,0.2-0.2,0.3-0.4,0.3l-29,0c-0.1,0-0.2,0-0.3-0.1l-25.3-28.8c-0.3-0.3-0.8-0.3-1.1,0l-25.1,28.8    c-0.1,0.1-0.2,0.1-0.3,0.1h-29.1c-0.2,0-0.4-0.2-0.4-0.3L724,7.7c0-0.2,0.2-0.4,0.4-0.4h30.6c0.2,0,0.4,0.1,0.4,0.3l1.7,20.3    c0,0.6,0.8,0.9,1.2,0.5l24.5-21c0.1-0.1,0.3-0.1,0.5,0c2.5,2.2,24.5,21,24.6,21.1c0.5,0.4,1.2,0.1,1.2-0.5l1.7-20.3    c0-0.2,0.2-0.3,0.4-0.3h30.6c0.2,0,0.4,0.2,0.4,0.4L838.4,73.2z"
   id="path370" />
	</g>
	<g
   id="g378">
		<path
   d="M958.3,144.4c0,0.2-0.2,0.3-0.4,0.3l-29,0c-0.1,0-0.2,0-0.3-0.1l-25.3-28.8c-0.3-0.3-0.8-0.3-1.1,0l-25.1,28.8    c-0.1,0.1-0.2,0.1-0.3,0.1h-29.1c-0.2,0-0.4-0.2-0.4-0.3l-3.6-65.6c0-0.2,0.2-0.4,0.4-0.4h30.6c0.2,0,0.4,0.1,0.4,0.3l1.7,20.3    c0,0.6,0.8,0.9,1.2,0.5l24.5-21c0.1-0.1,0.3-0.1,0.5,0c2.5,2.2,24.5,21,24.6,21.1c0.5,0.4,1.2,0.1,1.2-0.5l1.7-20.3    c0-0.2,0.2-0.3,0.4-0.3h30.6c0.2,0,0.4,0.2,0.4,0.4L958.3,144.4z"
   id="path374" />
		<path
   d="M961.5,73.2h-30.6c-0.2,0-0.4-0.1-0.4-0.3l-1.7-20.3c0-0.6-0.8-0.9-1.2-0.5l-24.5,21c-0.1,0.1-0.3,0.1-0.5,0    c-2.5-2.2-24.5-21-24.6-21.1c-0.5-0.4-1.2-0.1-1.2,0.5l-1.7,20.3c0,0.2-0.2,0.3-0.4,0.3h-30.6c-0.2,0-0.4-0.2-0.4-0.4l3.6-65.6    c0-0.2,0.2-0.3,0.4-0.3l29,0c0.1,0,0.2,0,0.3,0.1l25.3,28.8c0.3,0.3,0.8,0.3,1.1,0L928.6,7c0.1-0.1,0.2-0.1,0.3-0.1h29.1    c0.2,0,0.4,0.2,0.4,0.3l3.6,65.6C961.9,73,961.7,73.2,961.5,73.2z"
   id="path376" />
	</g>
	<path
   d="M841.3,144.7h-30.6c-0.2,0-0.4-0.1-0.4-0.3l-1.7-20.3c0-0.6-0.8-0.9-1.2-0.5l-24.5,21c-0.1,0.1-0.3,0.1-0.5,0   c-2.5-2.2-24.5-21-24.6-21.1c-0.5-0.4-1.2-0.1-1.2,0.5l-1.7,20.3c0,0.2-0.2,0.3-0.4,0.3H724c-0.2,0-0.4-0.2-0.4-0.4l3.6-65.6   c0-0.2,0.2-0.3,0.4-0.3l29,0c0.1,0,0.2,0,0.3,0.1l25.3,28.8c0.3,0.3,0.8,0.3,1.1,0l25.1-28.8c0.1-0.1,0.2-0.1,0.3-0.1h29.1   c0.2,0,0.4,0.2,0.4,0.3l3.6,65.6C841.7,144.6,841.5,144.7,841.3,144.7z"
   id="path380" />
	<path
   d="M1077.8,73.3c0,0.2-0.2,0.3-0.4,0.3l-29,0c-0.1,0-0.2,0-0.3-0.1l-25.3-28.8c-0.3-0.3-0.8-0.3-1.1,0l-25.1,28.8   c-0.1,0.1-0.2,0.1-0.3,0.1h-29.1c-0.2,0-0.4-0.2-0.4-0.3l-3.6-65.6c0-0.2,0.2-0.4,0.4-0.4h30.6c0.2,0,0.4,0.1,0.4,0.3l1.7,20.3   c0,0.6,0.8,0.9,1.2,0.5l24.5-21c0.1-0.1,0.3-0.1,0.5,0c2.5,2.2,24.5,21,24.6,21.1c0.5,0.4,1.2,0.1,1.2-0.5l1.7-20.3   c0-0.2,0.2-0.3,0.4-0.3h30.6c0.2,0,0.4,0.2,0.4,0.4L1077.8,73.3z"
   id="path382" />
	<path
   d="M1197.7,144.4c0,0.2-0.2,0.3-0.4,0.3l-29,0c-0.1,0-0.2,0-0.3-0.1l-25.3-28.8c-0.3-0.3-0.8-0.3-1.1,0l-25.1,28.8   c-0.1,0.1-0.2,0.1-0.3,0.1h-29.1c-0.2,0-0.4-0.2-0.4-0.3l-3.6-65.6c0-0.2,0.2-0.4,0.4-0.4h30.6c0.2,0,0.4,0.1,0.4,0.3l1.7,20.3   c0,0.6,0.8,0.9,1.2,0.5l24.5-21c0.1-0.1,0.3-0.1,0.5,0c2.5,2.2,24.5,21,24.6,21.1c0.5,0.4,1.2,0.1,1.2-0.5l1.7-20.3   c0-0.2,0.2-0.3,0.4-0.3h30.6c0.2,0,0.4,0.2,0.4,0.4L1197.7,144.4z"
   id="path384" />
	<path
   d="M1200.9,73.2h-30.6c-0.2,0-0.4-0.1-0.4-0.3l-1.7-20.3c0-0.6-0.8-0.9-1.2-0.5l-24.5,21c-0.1,0.1-0.3,0.1-0.5,0   c-2.5-2.2-24.5-21-24.6-21.1c-0.5-0.4-1.2-0.1-1.2,0.5l-1.7,20.3c0,0.2-0.2,0.3-0.4,0.3h-30.6c-0.2,0-0.4-0.2-0.4-0.4l3.6-65.6   c0-0.2,0.2-0.3,0.4-0.3l29,0c0.1,0,0.2,0,0.3,0.1l25.3,28.8c0.3,0.3,0.8,0.3,1.1,0L1168,7c0.1-0.1,0.2-0.1,0.3-0.1h29.1   c0.2,0,0.4,0.2,0.4,0.3l3.6,65.6C1201.2,73,1201.1,73.2,1200.9,73.2z"
   id="path386" />
	<path
   d="M1080.7,144.8h-30.6c-0.2,0-0.4-0.1-0.4-0.3l-1.7-20.3c0-0.6-0.8-0.9-1.2-0.5l-24.5,21c-0.1,0.1-0.3,0.1-0.5,0   c-2.5-2.2-24.5-21-24.6-21.1c-0.5-0.4-1.2-0.1-1.2,0.5l-1.7,20.3c0,0.2-0.2,0.3-0.4,0.3h-30.6c-0.2,0-0.4-0.2-0.4-0.4l3.6-65.6   c0-0.2,0.2-0.3,0.4-0.3l29,0c0.1,0,0.2,0,0.3,0.1l25.3,28.8c0.3,0.3,0.8,0.3,1.1,0l25.1-28.8c0.1-0.1,0.2-0.1,0.3-0.1h29.1   c0.2,0,0.4,0.2,0.4,0.3l3.6,65.6C1081,144.6,1080.9,144.8,1080.7,144.8z"
   id="path388" />
	<path
   d="M1317.3,73.1c0,0.2-0.2,0.3-0.4,0.3l-29,0c-0.1,0-0.2,0-0.3-0.1l-25.3-28.8c-0.3-0.3-0.8-0.3-1.1,0l-25.1,28.8   c-0.1,0.1-0.2,0.1-0.3,0.1h-29.1c-0.2,0-0.4-0.2-0.4-0.3l-3.6-65.6c0-0.2,0.2-0.4,0.4-0.4h30.6c0.2,0,0.4,0.1,0.4,0.3l1.7,20.3   c0,0.6,0.8,0.9,1.2,0.5l24.5-21c0.1-0.1,0.3-0.1,0.5,0c2.5,2.2,24.5,21,24.6,21.1c0.5,0.4,1.2,0.1,1.2-0.5l1.7-20.3   c0-0.2,0.2-0.3,0.4-0.3h30.6c0.2,0,0.4,0.2,0.4,0.4L1317.3,73.1z"
   id="path390" />
	<path
   d="M1437.2,144.3c0,0.2-0.2,0.3-0.4,0.3l-29,0c-0.1,0-0.2,0-0.3-0.1l-25.3-28.8c-0.3-0.3-0.8-0.3-1.1,0l-25.1,28.8   c-0.1,0.1-0.2,0.1-0.3,0.1h-29.1c-0.2,0-0.4-0.2-0.4-0.3l-3.6-65.6c0-0.2,0.2-0.4,0.4-0.4h30.6c0.2,0,0.4,0.1,0.4,0.3l1.7,20.3   c0,0.6,0.8,0.9,1.2,0.5l24.5-21c0.1-0.1,0.3-0.1,0.5,0c2.5,2.2,24.5,21,24.6,21.1c0.5,0.4,1.2,0.1,1.2-0.5l1.7-20.3   c0-0.2,0.2-0.3,0.4-0.3h30.6c0.2,0,0.4,0.2,0.4,0.4L1437.2,144.3z"
   id="path392" />
	<path
   d="M1440.4,73.1h-30.6c-0.2,0-0.4-0.1-0.4-0.3l-1.7-20.3c0-0.6-0.8-0.9-1.2-0.5L1382,73c-0.1,0.1-0.3,0.1-0.5,0   c-2.5-2.2-24.5-21-24.6-21.1c-0.5-0.4-1.2-0.1-1.2,0.5l-1.7,20.3c0,0.2-0.2,0.3-0.4,0.3h-30.6c-0.2,0-0.4-0.2-0.4-0.4l3.6-65.6   c0-0.2,0.2-0.3,0.4-0.3l29,0c0.1,0,0.2,0,0.3,0.1l25.3,28.8c0.3,0.3,0.8,0.3,1.1,0l25.1-28.8c0.1-0.1,0.2-0.1,0.3-0.1h29.1   c0.2,0,0.4,0.2,0.4,0.3l3.6,65.6C1440.8,72.9,1440.6,73.1,1440.4,73.1z"
   id="path394" />
	<path
   d="M1320.2,144.6h-30.6c-0.2,0-0.4-0.1-0.4-0.3l-1.7-20.3c0-0.6-0.8-0.9-1.2-0.5l-24.5,21c-0.1,0.1-0.3,0.1-0.5,0   c-2.5-2.2-24.5-21-24.6-21.1c-0.5-0.4-1.2-0.1-1.2,0.5l-1.7,20.3c0,0.2-0.2,0.3-0.4,0.3h-30.6c-0.2,0-0.4-0.2-0.4-0.4l3.6-65.6   c0-0.2,0.2-0.3,0.4-0.3l29,0c0.1,0,0.2,0,0.3,0.1l25.3,28.8c0.3,0.3,0.8,0.3,1.1,0l25.1-28.8c0.1-0.1,0.2-0.1,0.3-0.1h29.1   c0.2,0,0.4,0.2,0.4,0.3l3.6,65.6C1320.6,144.5,1320.4,144.6,1320.2,144.6z"
   id="path396" />
	<g
   id="g400">
		<path
   d="M1557.1,72.7c0,0.2-0.2,0.3-0.4,0.3l-29,0c-0.1,0-0.2,0-0.3-0.1l-25.3-28.8c-0.3-0.3-0.8-0.3-1.1,0l-25.1,28.8    c-0.1,0.1-0.2,0.1-0.3,0.1h-29.1c-0.2,0-0.4-0.2-0.4-0.3l-3.6-65.6c0-0.2,0.2-0.4,0.4-0.4h30.6c0.2,0,0.4,0.1,0.4,0.3l1.7,20.3    c0,0.6,0.8,0.9,1.2,0.5l24.5-21c0.1-0.1,0.3-0.1,0.5,0c2.5,2.2,24.5,21,24.6,21.1c0.5,0.4,1.2,0.1,1.2-0.5l1.7-20.3    c0-0.2,0.2-0.3,0.4-0.3h30.6c0.2,0,0.4,0.2,0.4,0.4L1557.1,72.7z"
   id="path398" />
	</g>
	<g
   id="g406">
		<path
   d="M1676.9,143.8c0,0.2-0.2,0.3-0.4,0.3l-29,0c-0.1,0-0.2,0-0.3-0.1l-25.3-28.8c-0.3-0.3-0.8-0.3-1.1,0l-25.1,28.8    c-0.1,0.1-0.2,0.1-0.3,0.1h-29.1c-0.2,0-0.4-0.2-0.4-0.3l-3.6-65.6c0-0.2,0.2-0.4,0.4-0.4h30.6c0.2,0,0.4,0.1,0.4,0.3l1.7,20.3    c0,0.6,0.8,0.9,1.2,0.5l24.5-21c0.1-0.1,0.3-0.1,0.5,0c2.5,2.2,24.5,21,24.6,21.1c0.5,0.4,1.2,0.1,1.2-0.5l1.7-20.3    c0-0.2,0.2-0.3,0.4-0.3h30.6c0.2,0,0.4,0.2,0.4,0.4L1676.9,143.8z"
   id="path402" />
		<path
   d="M1680.1,72.7h-30.6c-0.2,0-0.4-0.1-0.4-0.3l-1.7-20.3c0-0.6-0.8-0.9-1.2-0.5l-24.5,21c-0.1,0.1-0.3,0.1-0.5,0    c-2.5-2.2-24.5-21-24.6-21.1c-0.5-0.4-1.2-0.1-1.2,0.5l-1.7,20.3c0,0.2-0.2,0.3-0.4,0.3h-30.6c-0.2,0-0.4-0.2-0.4-0.4l3.6-65.6    c0-0.2,0.2-0.3,0.4-0.3l29,0c0.1,0,0.2,0,0.3,0.1l25.3,28.8c0.3,0.3,0.8,0.3,1.1,0l25.1-28.8c0.1-0.1,0.2-0.1,0.3-0.1h29.1    c0.2,0,0.4,0.2,0.4,0.3l3.6,65.6C1680.5,72.5,1680.3,72.7,1680.1,72.7z"
   id="path404" />
	</g>
	<path
   d="M1559.9,144.2h-30.6c-0.2,0-0.4-0.1-0.4-0.3l-1.7-20.3c0-0.6-0.8-0.9-1.2-0.5l-24.5,21c-0.1,0.1-0.3,0.1-0.5,0   c-2.5-2.2-24.5-21-24.6-21.1c-0.5-0.4-1.2-0.1-1.2,0.5l-1.7,20.3c0,0.2-0.2,0.3-0.4,0.3h-30.6c-0.2,0-0.4-0.2-0.4-0.4l3.6-65.6   c0-0.2,0.2-0.3,0.4-0.3l29,0c0.1,0,0.2,0,0.3,0.1l25.3,28.8c0.3,0.3,0.8,0.3,1.1,0L1527,78c0.1-0.1,0.2-0.1,0.3-0.1h29.1   c0.2,0,0.4,0.2,0.4,0.3l3.6,65.6C1560.3,144,1560.1,144.2,1559.9,144.2z"
   id="path408" />
	<g
   id="g412">
		<path
   d="M1796.6,72.6c0,0.2-0.2,0.3-0.4,0.3l-29,0c-0.1,0-0.2,0-0.3-0.1L1741.6,44c-0.3-0.3-0.8-0.3-1.1,0l-25.1,28.8    c-0.1,0.1-0.2,0.1-0.3,0.1h-29.1c-0.2,0-0.4-0.2-0.4-0.3L1682.1,7c0-0.2,0.2-0.4,0.4-0.4h30.6c0.2,0,0.4,0.1,0.4,0.3l1.7,20.3    c0,0.6,0.8,0.9,1.2,0.5l24.5-21c0.1-0.1,0.3-0.1,0.5,0c2.5,2.2,24.5,21,24.6,21.1c0.5,0.4,1.2,0.1,1.2-0.5l1.7-20.3    c0-0.2,0.2-0.3,0.4-0.3h30.6c0.2,0,0.4,0.2,0.4,0.4L1796.6,72.6z"
   id="path410" />
	</g>
	<g
   id="g418">
		<path
   d="M1916.4,143.7c0,0.2-0.2,0.3-0.4,0.3l-29,0c-0.1,0-0.2,0-0.3-0.1l-25.3-28.8c-0.3-0.3-0.8-0.3-1.1,0l-25.1,28.8    c-0.1,0.1-0.2,0.1-0.3,0.1h-29.1c-0.2,0-0.4-0.2-0.4-0.3l-3.6-65.6c0-0.2,0.2-0.4,0.4-0.4h30.6c0.2,0,0.4,0.1,0.4,0.3l1.7,20.3    c0,0.6,0.8,0.9,1.2,0.5l24.5-21c0.1-0.1,0.3-0.1,0.5,0c2.5,2.2,24.5,21,24.6,21.1c0.5,0.4,1.2,0.1,1.2-0.5l1.7-20.3    c0-0.2,0.2-0.3,0.4-0.3h30.6c0.2,0,0.4,0.2,0.4,0.4L1916.4,143.7z"
   id="path414" />
		<path
   d="M1919.6,72.5h-30.6c-0.2,0-0.4-0.1-0.4-0.3l-1.7-20.3c0-0.6-0.8-0.9-1.2-0.5l-24.5,21c-0.1,0.1-0.3,0.1-0.5,0    c-2.5-2.2-24.5-21-24.6-21.1c-0.5-0.4-1.2-0.1-1.2,0.5l-1.7,20.3c0,0.2-0.2,0.3-0.4,0.3h-30.6c-0.2,0-0.4-0.2-0.4-0.4l3.6-65.6    c0-0.2,0.2-0.3,0.4-0.3l29,0c0.1,0,0.2,0,0.3,0.1l25.3,28.8c0.3,0.3,0.8,0.3,1.1,0l25.1-28.8c0.1-0.1,0.2-0.1,0.3-0.1h29.1    c0.2,0,0.4,0.2,0.4,0.3l3.6,65.6C1920,72.4,1919.8,72.5,1919.6,72.5z"
   id="path416" />
	</g>
	<path
   d="M1799.4,144.1h-30.6c-0.2,0-0.4-0.1-0.4-0.3l-1.7-20.3c0-0.6-0.8-0.9-1.2-0.5l-24.5,21c-0.1,0.1-0.3,0.1-0.5,0   c-2.5-2.2-24.5-21-24.6-21.1c-0.5-0.4-1.2-0.1-1.2,0.5l-1.7,20.3c0,0.2-0.2,0.3-0.4,0.3h-30.6c-0.2,0-0.4-0.2-0.4-0.4l3.6-65.6   c0-0.2,0.2-0.3,0.4-0.3l29,0c0.1,0,0.2,0,0.3,0.1l25.3,28.8c0.3,0.3,0.8,0.3,1.1,0l25.1-28.8c0.1-0.1,0.2-0.1,0.3-0.1h29.1   c0.2,0,0.4,0.2,0.4,0.3l3.6,65.6C1799.8,143.9,1799.6,144.1,1799.4,144.1z"
   id="path420" />
</g>
</svg>
